# xmcd
#
# Track frame offsets:
#	150
#	12180
#	23810
#	36117
#	49135
#	61107
#	73875
#	87465
#	99830
#	112877
#	127087
#	138287
#
# Disc length: 2002 seconds
#
# Revision: 1
# Processed by: cddbd v1.5.2PL0 Copyright (c) Steve Scherf et al.
# Submitted via: audiograbber 1.83.01
#
DISCID=9b07d00c
DTITLE=The Platters - 36 All-Time Greatest Hits - Disc 2
DYEAR=2001
DGENRE=Oldies
TTITLE0=The Great Pretender
TTITLE1=Heaven On Earth
TTITLE2=On My Word Of Honor
TTITLE3=I'm Sorry
TTITLE4=Smoke Gets In Your Eyes
TTITLE5=Little Things Mean A Lot
TTITLE6=The Mystery Of You
TTITLE7=I Wish
TTITLE8=Oh, How I Miss You Tonight
TTITLE9=If I Didn't Care
TTITLE10=Keep Me In Love
TTITLE11=Sleepy Lagoon
EXTD=3 CD Set 36 All-Time Greatest Hits Disc 2
EXTT0=
EXTT1=
EXTT2=
EXTT3=
EXTT4=
EXTT5=
EXTT6=
EXTT7=
EXTT8=
EXTT9=
EXTT10=
EXTT11=
PLAYORDER=
